PathFileType	4	(X/Y/Z)	Kaydara	
DataRate	CameraRate	NumFrames	NumMarkers	Units	OrigDataRate	OrigDataStartFrame	OrigNumFrames	
240.00	240.00	4	72	mm	240.00	222	355	
Frame#	Time	Hips			RightUpLeg			RightLeg			RightFoot			RightFoot_End			LeftUpLeg			LeftLeg			LeftFoot			LeftFoot_End			Spine			Spine1			Spine2			Spine3			Neck			Head			Head_End			RightShoulder			RightArm			RightForeArm			RightHand			RightHandThumb1			RightHandThumb2			RightHandThumb3			RightHandThumb3_End			RightInHandIndex			RightHandIndex1			RightHandIndex2			RightHandIndex3			RightHandIndex3_End			RightInHandMiddle			RightHandMiddle1			RightHandMiddle2			RightHandMiddle3			RightHandMiddle3_End			RightInHandRing			RightHandRing1			RightHandRing2			RightHandRing3			RightHandRing3_End			RightInHandPinky			RightHandPinky1			RightHandPinky2			RightHandPinky3			RightHandPinky3_End			LeftShoulder			LeftArm			LeftForeArm			LeftHand			LeftHandThumb1			LeftHandThumb2			LeftHandThumb3			LeftHandThumb3_End			LeftInHandIndex			LeftHandIndex1			LeftHandIndex2			LeftHandIndex3			LeftHandIndex3_End			LeftInHandMiddle			LeftHandMiddle1			LeftHandMiddle2			LeftHandMiddle3			LeftHandMiddle3_End			LeftInHandRing			LeftHandRing1			LeftHandRing2			LeftHandRing3			LeftHandRing3_End			LeftInHandPinky			LeftHandPinky1			LeftHandPinky2			LeftHandPinky3			LeftHandPinky3_End			
		X1	Y1	Z1	X2	Y2	Z2	X3	Y3	Z3	X4	Y4	Z4	X5	Y5	Z5	X6	Y6	Z6	X7	Y7	Z7	X8	Y8	Z8	X9	Y9	Z9	X10	Y10	Z10	X11	Y11	Z11	X12	Y12	Z12	X13	Y13	Z13	X14	Y14	Z14	X15	Y15	Z15	X16	Y16	Z16	X17	Y17	Z17	X18	Y18	Z18	X19	Y19	Z19	X20	Y20	Z20	X21	Y21	Z21	X22	Y22	Z22	X23	Y23	Z23	X24	Y24	Z24	X25	Y25	Z25	X26	Y26	Z26	X27	Y27	Z27	X28	Y28	Z28	X29	Y29	Z29	X30	Y30	Z30	X31	Y31	Z31	X32	Y32	Z32	X33	Y33	Z33	X34	Y34	Z34	X35	Y35	Z35	X36	Y36	Z36	X37	Y37	Z37	X38	Y38	Z38	X39	Y39	Z39	X40	Y40	Z40	X41	Y41	Z41	X42	Y42	Z42	X43	Y43	Z43	X44	Y44	Z44	X45	Y45	Z45	X46	Y46	Z46	X47	Y47	Z47	X48	Y48	Z48	X49	Y49	Z49	X50	Y50	Z50	X51	Y51	Z51	X52	Y52	Z52	X53	Y53	Z53	X54	Y54	Z54	X55	Y55	Z55	X56	Y56	Z56	X57	Y57	Z57	X58	Y58	Z58	X59	Y59	Z59	X60	Y60	Z60	X61	Y61	Z61	X62	Y62	Z62	X63	Y63	Z63	X64	Y64	Z64	X65	Y65	Z65	X66	Y66	Z66	X67	Y67	Z67	X68	Y68	Z68	X69	Y69	Z69	X70	Y70	Z70	X71	Y71	Z71	X72	Y72	Z72	

222	0.921	4921.0129	906.651	56.2195	4955.135662762635	873.3219744870495	-12.499471322193457	4882.4209508182375	466.1687659272329	-73.89371488480177	4947.587363388424	101.44400245039596	-180.44978569746624	4874.013995367991	23.434580906654304	-22.227753516358508	4894.334195513403	911.1944656831777	136.66366279579034	4835.903019459039	509.6598361592276	239.46050643571726	4765.645908478553	78.5483360891346	292.02890719008684	4641.912629359236	-6.013247888245353	173.9864369377727	4886.400808712259	1035.7504380085875	5.780368688331055	4837.403917680083	1106.7768200555608	-38.36075365620458	4781.02942434555	1175.5894416846186	-85.49772705710289	4719.399466765213	1232.5663133227845	-132.5331717442066	4652.940073318855	1293.2791937163518	-182.10580136960704	4591.566803354684	1348.6769852620534	-226.12568140371198	4469.4813304947775	1441.7561312743514	-267.2727566167591	4683.800593608319	1265.202829961269	-186.15823181762812	4691.878055823354	1227.2994591498875	-258.88889799307935	4696.8604878372	1026.4377443760638	-196.02258081726794	4699.192545275885	916.4412401535735	-247.3411590015051	4713.770535157834	932.5026719749085	-255.27261660116375	4717.710955187971	932.7356857866168	-265.2171252131987	4719.1057270195215	929.3013554812776	-272.1500603568541	4719.114167035716	923.3615031508516	-277.9362320468305	4711.1432133113385	921.7076499672492	-255.9687628139981	4720.624894478362	913.7124355589679	-269.43681748533567	4722.56441841507	904.8142716777683	-279.12293512187455	4721.576410219987	901.002246422521	-284.26572077557796	4719.278841764544	899.0072001505984	-287.92944394908506	4706.92177795592	912.0452716036009	-255.535518623268	4713.887876331521	899.0215447231324	-268.4374255045116	4715.410699930342	888.0587169793718	-278.90644585181286	4713.933853121356	882.8583002535171	-285.06281744814135	4711.281421423267	880.3830188470645	-289.0481554292437	4703.737746552884	905.4315790855505	-254.88529372837243	4707.334908950199	888.0441667195498	-265.8822019892257	4708.04407986724	877.2284976276135	-274.88403159544583	4706.291279814979	871.5429267823436	-280.75701468899393	4703.641762077926	868.8983486060553	-284.4732778256757	4699.475253190953	897.9716069684091	-253.7492790345739	4700.285267070906	877.4517247038843	-263.13804815920884	4699.872810137535	866.9002844743753	-270.1065217078849	4698.1200884957	861.8386335846301	-274.2742718453387	4695.500128056768	858.9696220142915	-277.4995016099654	4666.325195639872	1281.8599053211885	-144.09752831228369	4652.544153062299	1273.5984941891898	-55.9817716425659	4725.250600391283	1076.1367803740316	-120.35571576740406	4737.288338955968	920.0398347600237	-185.76568535152919	4730.81675021985	934.207167880228	-195.77132147912008	4726.9483675984375	925.4858707794149	-202.94085955096236	4723.988859373137	915.8432178615592	-207.0622547544317	4721.294462114616	904.7512488167858	-209.7525621669287	4728.7905163679525	924.0358256417393	-193.7258569921611	4716.899459432724	911.1731691940919	-201.9637220702968	4711.191049580497	895.1538881372092	-206.83899794157708	4710.189972603984	885.2204708996646	-209.46995158818197	4711.079977117525	877.0159640138769	-211.37777799979028	4728.604093836917	914.4400748208925	-191.02811080399582	4716.904344493347	896.7058970042707	-197.60410793961262	4710.692512376614	877.9924281034323	-202.5402496599275	4709.493000181049	865.4163290038122	-205.53024507123985	4710.470842474245	856.1514161774851	-207.52822921005304	4728.745662045146	908.0347888475688	-188.91658564038707	4718.294994595665	886.7154011398886	-192.99063614549203	4712.91706790075	869.1716125419471	-196.89034492342117	4711.779343082161	856.3861416237426	-199.56060317933597	4712.707907906993	847.3644822038536	-201.337879321155	4729.49094120503	900.6635795851436	-186.20765314320397	4720.260059645958	876.7150316433979	-188.2925609863665	4716.056091650121	860.8355359968872	-190.76932315738793	4715.275802172242	850.6240042168909	-192.40453820992082	4716.126888855427	842.1225194479875	-193.79907804191916
223	0.925	4921.0129	906.651	56.2195	4954.414181516778	873.0622331072697	-12.744915440461046	4882.1696601290905	465.7740900702575	-73.90706447406689	4947.801300316495	101.25589519955392	-180.80800567407036	4874.267441663435	23.168952349063407	-22.606229827553378	4895.036533129749	911.4393452152988	136.8859244356653	4836.705340832063	509.92327370002664	239.83841117158195	4765.840619983622	78.85142981132083	291.89655050281635	4642.192334120486	-5.820551388309147	173.8409619758873	4886.504831579807	1035.8257898096251	5.894829914913998	4837.468561724448	1106.8827428741683	-38.15245130645474	4781.0195771353165	1175.699723116672	-85.18724824334035	4719.262534615032	1232.6174895549839	-132.1062341478355	4652.666823820342	1293.2627183840082	-181.5558029688628	4591.177495974672	1348.606128365433	-225.45940357779872	4469.023127658548	1441.6434681103133	-266.4923993842804	4683.387780628608	1265.0212791332756	-185.67865836510367	4692.690261433637	1228.6914492564458	-258.50939538070196	4697.894284060944	1028.3645357330242	-194.4252898527296	4698.147275868246	918.2099466943371	-246.0752407173091	4713.05299453756	934.6931033005071	-254.67606729394836	4716.943084172039	934.8682266992076	-265.2000165654885	4718.20934551144	931.3207645866692	-272.47669473306723	4718.030699047779	925.2243064786228	-278.4982903331292	4710.131885008136	923.7064622492511	-255.2193100017571	4719.270385581911	915.6597870968754	-269.2550519032676	4720.911403936264	906.561733911078	-279.336348187033	4719.807814174553	902.5986844130429	-284.7295301039122	4717.461796060083	900.4605894019521	-288.60368559659054	4705.665360169105	913.8400263235026	-254.60372193658623	4712.164178876481	900.6557778881037	-267.9607040261509	4713.329972827632	889.4478683965044	-278.83504192370964	4711.698661491934	884.0523074324826	-285.2810781155297	4708.985915230434	881.4142147020253	-289.4906246389382	4702.316857461334	907.0846600133139	-253.80990545259883	4705.352256641783	889.4338568631359	-265.0891876775221	4705.718984194016	878.377254737878	-274.4171060829512	4703.800592826009	872.4889436837865	-280.5550554811584	4701.086498881046	869.6844068753153	-284.47528930540403	4697.875320779488	899.4535979343345	-252.4941459737953	4698.059352845531	878.5906012535938	-262.0303413698367	4697.326369143581	867.8047498779857	-269.21628951393274	4695.430462199652	862.575153913439	-273.5561944905561	4692.740405209177	859.552896988698	-276.9499586292525	4666.293300762802	1282.0613072594645	-143.56486182563376	4653.241749975978	1274.541268541385	-55.318346219327346	4725.130074326503	1076.6856146316186	-119.2246463822872	4734.232338302848	919.9029283263022	-182.74084230815822	4727.748945408427	934.1831440849768	-192.85718290386222	4724.428968446928	925.3098992512156	-199.71618422862633	4721.899609816035	915.5256855331049	-203.53635195738224	4719.6050775623335	904.2851247766692	-205.90284954332327	4725.854238416133	923.9103965968781	-190.53196662877824	4714.499709655207	910.8617881912633	-198.13270828430691	4709.380026860719	894.6256507847739	-202.48616758649808	4708.782242489113	884.5529575114002	-204.86830568106492	4710.031199477991	876.2301657856227	-206.621180543989	4725.790582702	914.219742381701	-187.62156348889795	4714.680489736865	896.2528839256438	-193.46112585405461	4709.125803532568	877.2907532817441	-197.8017709238616	4708.419916243885	864.5408506668316	-200.47905948679383	4709.793953317758	855.1437070347914	-202.30141197940603	4726.0034295810965	907.7527693669106	-185.37616896888102	4716.137924239723	886.1731110762602	-188.6743524821614	4711.346911428452	868.4006535195904	-192.02951613331163	4710.692838128595	855.4411974694408	-194.38459770778408	4711.997485194412	846.2922045121883	-195.99031669171276	4726.829218426112	900.3109868428712	-182.5305027417782	4718.17893012665	876.0822234641989	-183.81967175602512	4714.464467388434	860.0021296948064	-185.8239690814384	4714.046400811777	849.6552326823207	-187.21167848197257	4715.236070941632	841.0360823725973	-188.4441094991914
224	0.929	4921.0129	906.651	56.2195	4953.687644585131	872.8000601346616	-12.974351497309256	4881.887315347757	465.386651805441	-73.92571685827222	4947.946236931828	101.06110726300484	-181.1442800681621	4874.453952887423	22.889078596025414	-22.965776367289017	4895.740733083687	911.6866677021778	137.09439551577606	4837.53686806076	510.1881370245839	240.2158179407423	4766.059889889999	79.15924163624855	291.7682663108039	4642.498352888353	-5.624455114222909	173.6988258492183	4886.623303232431	1035.901218519611	5.998961652290788	4837.5512186831	1106.99095714975	-37.9546610957873	4781.029662276135	1175.815024651274	-84.88535634998209	4719.144700216299	1232.67727249051	-131.68227444593404	4652.411772766211	1293.2582782209386	-181.0031454194667	4590.805647663347	1348.550111987771	-224.78569206045475	4468.579275667095	1441.5375441655208	-265.71118590900835	4682.9926128903235	1264.8514010915083	-185.19713837763993	4693.628142165491	1230.1877866537895	-258.20889447138694	4699.062889128688	1030.4218671309359	-192.88518902032936	4697.154442842011	920.0977764528003	-244.67378759085585	4712.35352687918	936.9590389001146	-253.988220522596	4716.1368577040375	937.0493597362797	-265.08591198301036	4717.2376010566295	933.3744160604268	-272.69182552359774	4716.842974948822	927.1131465562012	-278.92773457502363	4709.146139591445	925.7915884342503	-254.34697980257357	4717.8982709722	917.663637213142	-268.92138550379605	4719.197607906585	908.3499251497121	-279.3662227219522	4717.94587858923	904.227516392116	-284.99468946505016	4715.520607275413	901.9404645914875	-289.0698438286989	4704.441631230427	915.7343145338276	-253.5208492316751	4710.4348927780175	902.3676126599203	-267.2893485354137	4711.197604956195	890.8992608954953	-278.53084006799736	4709.373058378941	885.29938623187	-285.246562294516	4706.5665404521715	882.4924486581821	-289.6691461264931	4700.934919295928	908.8473471288182	-252.56430095184936	4703.380095329842	890.9221604370194	-264.0704267793502	4703.3653838818145	879.6131598893118	-273.6875170029968	4701.2446110211185	873.5142851456757	-280.069221766695	4698.4347705621185	870.5446005820268	-284.18200317324687	4696.3217081524945	901.0578870619111	-251.04725051173685	4695.858652496816	879.8494151518526	-260.66678681378266	4694.775822923664	868.8230197091383	-268.03519026321095	4692.71081832729	863.4212466681606	-272.52913875662944	4689.923583880982	860.2419962465387	-276.0797989082602	4666.280767935048	1282.2727512063886	-143.03262267691662	4653.963671912446	1275.4967206044166	-54.65641065853911	4725.014107254557	1077.2447518800825	-118.06851416694084	4731.1570177046415	919.811725351466	-179.55457560125336	4724.646311582306	934.1825452047696	-189.78823209282828	4721.897143650353	925.1568881546481	-196.371659195504	4719.821301993151	915.23327980304	-199.9150509623246	4717.952758450867	903.8480629864423	-201.97821152716944	4722.908165827832	923.8135240747439	-187.18149370480828	4712.139506091965	910.5695679996791	-194.16479895409034	4707.6502609056615	894.1193782754839	-198.02482235234902	4707.475593770869	883.9129814412518	-200.18223524943332	4709.095792858402	875.4791001063114	-201.80444618848864	4722.987031462527	914.0355089430917	-184.05872797130866	4712.525403596374	895.830882605417	-189.18121274331006	4707.675833536443	876.6241873687907	-192.9573234510559	4707.48866727686	863.7077020290676	-195.35096608121262	4709.272919049095	854.1864424912544	-197.02426045406833	4723.283840193327	907.5123369619141	-181.67902522039338	4714.067169408515	885.6723775518221	-184.21788598362588	4709.907299005312	867.6758913081703	-187.0554556010515	4709.76236821935	854.5499829612511	-189.12337308862843	4711.456888165091	845.2815555978564	-190.58251174539961	4724.203439935563	900.007212500909	-178.69668715185531	4716.200312993629	875.5023907579514	-179.20485136376885	4713.0142660685215	859.2270834075597	-180.75813845021457	4712.97870578175	848.7511228881817	-181.91871336353864	4714.520148320032	840.0217689631393	-183.01112567255583
225	0.933	4921.0129	906.651	56.2195	4952.958458050859	872.5360569893606	-13.186442855297951	4881.571547478602	465.0080810756201	-73.9483425614371	4948.021920109129	100.86072926805927	-181.45626780160993	4874.573215775186	22.59626107011534	-23.303982878669828	4896.444440417723	911.9359993647885	137.28809923947375	4838.39462061726	510.45409090864155	240.59144679932038	4766.303947339594	79.47122689094964	291.64552807746367	4642.831021086613	-5.425402431370417	173.56135277008363	4886.755935316396	1035.9759539638121	6.091108729182249	4837.651690203871	1107.1006066111795	-37.76930052497339	4781.059836581725	1175.9347822278714	-84.59402518494934	4719.046931640888	1232.7462375691878	-131.26309160110483	4652.1767593734685	1293.2676658004088	-180.44945504334802	4590.45387702589	1348.511799292094	-224.10605519686695	4468.152679866207	1441.4413198242564	-264.93109869372125	4682.617168327082	1264.6956365833446	-184.71499749562244	4694.680786899585	1231.7752168282675	-257.98736111983	4700.352870745569	1032.6006452914748	-191.4042265642769	4696.214890172365	922.106755459019	-243.1184527055842	4711.669417918769	939.2988894070445	-253.1865091839645	4715.288185150068	939.2778656684892	-264.84588557384177	4716.186319309299	935.4621578553989	-272.7620010279517	4715.547498966567	929.0294534325227	-279.18725665255494	4708.186097760618	927.9638251023043	-253.32857533215233	4716.510700068125	919.7267022254335	-268.4043835367298	4717.426455138432	910.1838799336572	-279.17481921104593	4715.993876310927	905.8949489949505	-285.019944372926	4713.457785118146	903.4538209558275	-289.2840278047553	4703.253014040955	917.7311141677698	-252.26369785346554	4708.705664983123	904.1630790440471	-266.3921184506089	4709.020931993899	892.4217369457716	-277.9557451934545	4706.964338643038	886.6099289329524	-284.91694632909497	4704.029826226994	883.6290418473272	-289.5385174797206	4699.595937197308	910.7241062018577	-251.12548724364547	4701.426715008647	892.5175574488364	-262.7959150670157	4700.99333925013	880.9474287541899	-272.6593241403855	4698.633513823791	874.631812744889	-279.2595149538826	4695.696111669554	871.4927362040579	-283.55072375312426	4694.820126155072	902.7906332003657	-249.3860521608168	4693.693884319022	881.2390370452439	-259.01870148646765	4692.233754207588	869.9685813221071	-266.52987813959663	4689.974042630147	864.391805843252	-271.15684241287994	4687.062102961943	861.0527694311102	-274.8503962331715	4666.288578784239	1282.4945155921484	-142.50283600741773	4654.709116553303	1276.462318824346	-54.000062924906736	4724.907557013959	1077.8136891851898	-116.8884926994396	4728.079274570618	919.7757518909381	-176.2121109302463	4721.525826389088	934.215409284956	-186.56814628894512	4719.366111275318	925.0393994651233	-192.91354948988405	4717.764516225534	914.9805822828664	-196.20717302885035	4716.345869381743	903.4565528527352	-197.99024548579104	4719.969601509498	923.7561293952538	-183.68049512200872	4709.835017903981	910.3109792583871	-190.07090421032015	4706.0150590240455	893.6525603247021	-193.47021898489095	4706.280520656673	883.3197219539676	-195.42924048425874	4708.281225674528	874.7832182649486	-196.9466225176506	4720.210630716412	913.8989109055148	-180.34758928126612	4710.455110696589	895.4552238887196	-184.77812997854434	4706.3554904314715	876.0114259542788	-188.02565151515384	4706.708740830471	862.9376508071676	-190.16753087270732	4708.913913248629	853.3017984936648	-191.72008974297222	4720.60405476168	907.3253688625346	-177.8343738517577	4712.098880785739	885.2287649992018	-179.636692895674	4708.611635035479	867.0158890063585	-181.98819880637282	4708.998051111405	853.7330949474093	-183.7998119906071	4711.093115479938	844.3544729919419	-185.13905115779468	4721.630602185043	899.7644486491708	-174.71673906283965	4714.340245856326	874.9912921606605	-174.46515077216236	4711.7193110473745	858.5286438110506	-175.5928903178151	4712.0841358245825	847.9314469335237	-176.5489437170948	4713.987772512381	839.1005631165302	-177.52503188698063
